<svg width="1271" height="1271" viewBox="0 0 1271 1271" fill="none" xmlns="http://www.w3.org/2000/svg">
<path d="M821.2 635.6L1231.4 225.6C1282.9 174.1 1282.9 91 1231.4 39.5C1179.9 -12 1096.8 -12 1045.3 39.5L635.1 449.5L225 39.4C173.5 -12.1 90.4 -12.1 38.9 39.4C-12.6 90.9 -12.6 174 38.9 225.5L449.1 635.5L38.9 1045.5C-12.6 1097 -12.6 1180.1 38.9 1231.6C90.5 1283.1 173.9 1283.1 225 1231.6L635.2 821.6L1045.4 1231.6C1096.9 1283.1 1180 1283.1 1231.5 1231.6C1282.6 1180.1 1282.6 1097 1231 1045.4L821.2 635.6Z" fill="#949391"/>
</svg>
